<svg xmlns="http://www.w3.org/2000/svg" viewBox="0 0 400 400" role="img" aria-label="Placeholder portrait frame">
  <defs>
    <radialGradient id="bg" cx="50%" cy="42%" r="70%">
      <stop offset="0%" stop-color="#1a2030"/>
      <stop offset="100%" stop-color="#0a0d13"/>
    </radialGradient>
  </defs>
  <rect width="400" height="400" fill="url(#bg)"/>

  <!-- concentric technical rings, echoing the hero graphic language -->
  <circle cx="200" cy="200" r="150" fill="none" stroke="#2a3140" stroke-width="1"/>
  <circle cx="200" cy="200" r="112" fill="none" stroke="#2a3140" stroke-width="1" stroke-dasharray="4 6"/>

  <!-- crosshair ticks -->
  <line x1="200" y1="30" x2="200" y2="52" stroke="#2a3140"/>
  <line x1="200" y1="348" x2="200" y2="370" stroke="#2a3140"/>
  <line x1="30" y1="200" x2="52" y2="200" stroke="#2a3140"/>
  <line x1="348" y1="200" x2="370" y2="200" stroke="#2a3140"/>

  <!-- abstract silhouette bust, kept simple/geometric rather than a fabricated face -->
  <g fill="#6c97f2" opacity="0.85">
    <circle cx="200" cy="168" r="52"/>
    <path d="M200 232c-58 0-96 40-104 96-1 8 5 16 14 16h180c9 0 15-8 14-16-8-56-46-96-104-96z"/>
  </g>

  <circle cx="303" cy="112" r="5" fill="#e6a45e"/>

  <text x="200" y="380" text-anchor="middle" font-family="Consolas, monospace" font-size="13" letter-spacing="2" fill="#697080">PHOTO UNAVAILABLE</text>
</svg>
